<svg id="canvas" height="auto" xmlns="http://www.w3.org/2000/svg" version="1.1" xmlns:xlink="http://www.w3.org/1999/xlink" xmlns:svgjs="http://svgjs.dev/svgjs" viewBox="0 0 900 512" width="auto" style="width: auto; height: auto;"><defs><linearGradient gradientTransform="matrix(6.123233995736766e-17,1,-1,6.123233995736766e-17,0,0)" id="SvgjsLinearGradient1019"><stop stop-color="#000000ff" offset="0"/><stop stop-color="#000000ff" offset="1"/></linearGradient></defs><rect width="900" height="512" fill="url(#SvgjsLinearGradient1019)"/><line x1="0" y1="0" x2="900" y2="0" stroke-width="4" stroke="#050007"/><line x1="0" y1="40" x2="900" y2="40" stroke-width="4" stroke="#14011a"/><line x1="0" y1="80" x2="900" y2="80" stroke-width="4" stroke="#23022e"/><line x1="0" y1="120" x2="900" y2="120" stroke-width="4" stroke="#320342"/><line x1="0" y1="160" x2="900" y2="160" stroke-width="4" stroke="#410455"/><line x1="0" y1="200" x2="900" y2="200" stroke-width="4" stroke="#500569"/><line x1="0" y1="240" x2="900" y2="240" stroke-width="4" stroke="#5f057c"/><line x1="0" y1="280" x2="900" y2="280" stroke-width="4" stroke="#6e0690"/><line x1="0" y1="320" x2="900" y2="320" stroke-width="4" stroke="#7d07a4"/><line x1="0" y1="360" x2="900" y2="360" stroke-width="4" stroke="#8b08b7"/><line x1="0" y1="400" x2="900" y2="400" stroke-width="4" stroke="#9a09cb"/><line x1="0" y1="440" x2="900" y2="440" stroke-width="4" stroke="#a90adf"/><line x1="0" y1="480" x2="900" y2="480" stroke-width="4" stroke="#b80bf2"/><path d="M0 0L0 449.6L808.8326992853374 0L0 0 " fill="#000000ff"/><line x1="-2" y1="40" x2="71.96020456275244" y2="-2" stroke-width="4" stroke="#050007"/><line x1="-2" y1="80" x2="143.92040912550488" y2="-2" stroke-width="4" stroke="#14011a"/><line x1="-2" y1="120" x2="215.8806136882573" y2="-2" stroke-width="4" stroke="#23022e"/><line x1="-2" y1="160" x2="287.84081825100975" y2="-2" stroke-width="4" stroke="#320342"/><line x1="-2" y1="200" x2="359.8010228137622" y2="-2" stroke-width="4" stroke="#410455"/><line x1="-2" y1="240" x2="431.7612273765146" y2="-2" stroke-width="4" stroke="#500569"/><line x1="-2" y1="280" x2="503.72143193926706" y2="-2" stroke-width="4" stroke="#5f057c"/><line x1="-2" y1="320" x2="575.6816365020195" y2="-2" stroke-width="4" stroke="#6e0690"/><line x1="-2" y1="360" x2="647.6418410647719" y2="-2" stroke-width="4" stroke="#7d07a4"/><line x1="-2" y1="400" x2="719.6020456275244" y2="-2" stroke-width="4" stroke="#8b08b7"/><line x1="-2" y1="440" x2="791.5622501902768" y2="-2" stroke-width="4" stroke="#9a09cb"/><path d="M900 0L900 552L293.92821778284826 0L900 0 " fill="#000000ff"/><line x1="902" y1="40" x2="856.0817549118005" y2="-2" stroke-width="4" stroke="#050007"/><line x1="902" y1="80" x2="812.1635098236012" y2="-2" stroke-width="4" stroke="#14011a"/><line x1="902" y1="120" x2="768.2452647354019" y2="-2" stroke-width="4" stroke="#23022e"/><line x1="902" y1="160" x2="724.3270196472024" y2="-2" stroke-width="4" stroke="#320342"/><line x1="902" y1="200" x2="680.408774559003" y2="-2" stroke-width="4" stroke="#410455"/><line x1="902" y1="240" x2="636.4905294708036" y2="-2" stroke-width="4" stroke="#500569"/><line x1="902" y1="280" x2="592.5722843826042" y2="-2" stroke-width="4" stroke="#5f057c"/><line x1="902" y1="320" x2="548.6540392944048" y2="-2" stroke-width="4" stroke="#6e0690"/><line x1="902" y1="360" x2="504.73579420620536" y2="-2" stroke-width="4" stroke="#7d07a4"/><line x1="902" y1="400" x2="460.81754911800596" y2="-2" stroke-width="4" stroke="#8b08b7"/><line x1="902" y1="440" x2="416.89930402980656" y2="-2" stroke-width="4" stroke="#9a09cb"/><line x1="902" y1="480" x2="372.9810589416072" y2="-2" stroke-width="4" stroke="#a90adf"/><line x1="902" y1="520" x2="329.06281385340776" y2="-2" stroke-width="4" stroke="#b80bf2"/></svg>